#N canvas 1121 316 660 506 10;
#X obj 101 101 cnv 15 38 168 empty chanstrip\$1bgr empty -2 8 1 14
-233017 -66577 0;
#X obj 125 182 vu 8 80 empty empty -1 -8 0 10 -66577 -1 0 0;
#X obj 105 181 vsl 15 80 0 127 0 0 empty empty empty 0 -9 0 10 -262144
-1 -1 5900 1;
#X obj 216 189 throw~ chanstripoutL;
#X obj 295 211 throw~ chanstripoutR;
#X obj 236 155 *~;
#X obj 294 152 *~;
#X obj 259 130 vline~;
#X obj 309 131 vline~;
#X obj 241 103 *~;
#X obj 256 82 vline~;
#X obj 110 115 knob 20 20 0 127 0 0 pans panr Pan 3 25 1 9 -262144
-1 -1 0 1;
#X msg 267 110 \$1 50;
#X msg 309 110 \$1 50;
#X msg 256 60 \$1 50;
#X obj 41 -54 loadbang;
#X msg 59 -3 63.5;
#X obj 316 46 expr if($f1>63.5 \, 1-($f1-63.5)/63.5 \, 1) \; if($f1<63.5
\, $f1/63.5 \, 1);
#X obj 152 131 pvu~ 100 100;
#X obj 130 101 bng 10 250 50 0 empty empty empty 17 7 0 10 -262144
-1 -1;
#X msg 20 2 100;
#X obj 240 -2 adc~ \$1;
#X obj 104 -91 i \$1;
#X msg 104 -69 \; chanstrip\$1bgr label .\$1;
#X obj 256 38 expr pow($f1/100 \, 2);
#X text 118 169 -;
#X obj 110 147 knob 20 20 0 127 0 0 pans panr FX 5 25 1 9 -262144 -1
-1 15 1;
#X obj 443 195 throw~ fx_in_L;
#X obj 464 218 throw~ fx_in_R;
#X obj 421 162 *~;
#X obj 479 159 *~;
#X obj 444 137 vline~;
#X msg 452 117 \$1 50;
#X obj 452 96 expr pow($f1/100 \, 2);
#X connect 2 0 24 0;
#X connect 5 0 3 0;
#X connect 5 0 18 0;
#X connect 5 0 29 0;
#X connect 6 0 4 0;
#X connect 6 0 18 0;
#X connect 6 0 30 1;
#X connect 7 0 5 1;
#X connect 8 0 6 1;
#X connect 9 0 5 0;
#X connect 9 0 6 0;
#X connect 10 0 9 1;
#X connect 11 0 17 0;
#X connect 12 0 7 0;
#X connect 13 0 8 0;
#X connect 14 0 10 0;
#X connect 15 0 16 0;
#X connect 15 0 20 0;
#X connect 15 0 22 0;
#X connect 16 0 11 0;
#X connect 17 0 12 0;
#X connect 17 1 13 0;
#X connect 18 0 1 0;
#X connect 19 0 16 0;
#X connect 19 0 20 0;
#X connect 20 0 2 0;
#X connect 21 0 9 0;
#X connect 22 0 23 0;
#X connect 24 0 14 0;
#X connect 26 0 33 0;
#X connect 29 0 27 0;
#X connect 30 0 28 0;
#X connect 31 0 29 1;
#X connect 31 0 30 0;
#X connect 32 0 31 0;
#X connect 33 0 32 0;
#X coords 0 -1 1 1 40 170 2 100 100;
