#N canvas 462 243 1096 711 10;
#X obj -21 107 sel 0 1;
#X obj -21 174 pack f \$1;
#X msg -21 202 color \$1 -1;
#X msg 8 148 13;
#X msg -21 148 0;
#X obj 0 257 spigot;
#X obj 0 235 r globalmidi;
#X msg 53 297 0;
#X msg 0 277 \$2 \$1;
#X obj 0 297 route 0;
#X obj 39 319 t a b;
#X obj 101 119 cnv 15 183 120 empty env\$1backdrop empty 3 54 1 8 -228992
-1 0;
#X obj 105 124 tgl 15 0 bgm\$1midilearn bgm\$1midilearnr MidiLearn
17 7 1 10 -262144 -1 -1 0 1;
#N canvas 1323 420 543 300 handlemidiset 0;
#X obj 62 28 inlet;
#X obj 63 60 sel 0;
#X msg 63 93 0;
#X obj 157 115 i;
#X obj 106 92 t f f f b;
#X obj 106 116 outlet;
#X msg 182 228 label _\$1;
#X msg 94 156 symbol;
#X msg 157 136 \; to_midi \$1 midilink 0;
#X obj 182 278 s env\$1midicnv;
#X obj 48 202 s env\$1midilink;
#X obj -96 200 s env\$1playcmd;
#X connect 0 0 1 0;
#X connect 1 0 2 0;
#X connect 1 1 4 0;
#X connect 2 0 7 0;
#X connect 2 0 10 0;
#X connect 2 0 11 0;
#X connect 3 0 8 0;
#X connect 4 0 5 0;
#X connect 4 0 6 0;
#X connect 4 1 10 0;
#X connect 4 2 3 1;
#X connect 4 3 3 0;
#X connect 6 0 9 0;
#X connect 7 0 6 0;
#X restore 285 406 pd handlemidiset;
#X obj 95 441 r globalmidi;
#X obj 95 483 route;
#X obj 95 506 sel 0;
#N canvas 612 393 949 414 saver 0;
#X obj 85 -119 inlet;
#X msg 85 -98 bang;
#X obj 240 360 textfile;
#X obj 82 365 print Saved;
#X obj 92 248 r sessiondir;
#X obj 48 269 pack f s;
#X msg 48 220 \$1;
#X obj 91 322 t s s;
#X msg 141 339 write \$1;
#X obj 85 153 t a a;
#X obj 106 -77 r env\$1midilink;
#X obj 127 -57 r env\$1trim;
#X obj 148 -37 r env\$1reven;
#X obj 169 -16 r env\$1revsize;
#X obj 190 5 r env\$1delen;
#X obj 204 25 r env\$1delmix;
#X obj 215 45 r env\$1deltime;
#X obj 233 85 r env\$1delfdbk;
#X msg 48 291 symbol \$2/env\$1.conf;
#X obj 85 132 pack \$1 f f f f f f f f f f;
#X obj 246 107 r env\$1revdamp;
#X obj 224 64 r env\$1delflutter;
#X msg 158 181 set name env\$1 \, add midilink \$2 \, add trim \$3
\, add rev_en \$4 \, add rev_size \$5 \, add rev_damp \$11 \, add del_en
\$6 \, add del_mix \$7 \, add del_time \$8 \, add del_flutter \$9 \,
add del_feedback \$10;
#X connect 0 0 1 0;
#X connect 1 0 19 0;
#X connect 4 0 5 1;
#X connect 5 0 18 0;
#X connect 6 0 5 0;
#X connect 7 0 3 0;
#X connect 7 1 8 0;
#X connect 8 0 2 0;
#X connect 9 0 6 0;
#X connect 9 1 22 0;
#X connect 10 0 19 1;
#X connect 11 0 19 2;
#X connect 12 0 19 3;
#X connect 13 0 19 4;
#X connect 14 0 19 5;
#X connect 15 0 19 6;
#X connect 16 0 19 7;
#X connect 17 0 19 9;
#X connect 18 0 7 0;
#X connect 19 0 9 0;
#X connect 20 0 19 10;
#X connect 21 0 19 8;
#X connect 22 0 2 0;
#X restore 229 406 pd saver;
#X obj 295 316 r global;
#X msg 39 342 midilink \$2;
#X obj 229 360 r env\$1;
#X obj 405 364 print env\$1;
#X obj 352 316 r to_envs;
#X obj 319 428 sel \$1;
#X obj 1101 609 print [WN] Unrecognised env command;
#X obj 414 316 r to_midi;
#X obj 414 337 route;
#X obj 481 316 r env\$1midilink;
#X obj 229 386 route save midilink sel;
#X obj 122 462 r env\$1midilink;
#X obj 122 586 s to_envs;
#X msg 122 566 sel \$1;
#X obj 122 546 i \$1;
#X msg 122 526 bang;
#N canvas 1014 492 622 455 color_handler 0;
#X obj 398 86 r env\$1reven;
#X obj 478 86 r env\$1delen;
#X obj 415 111 sel 0 1;
#X obj 494 111 sel 0 1;
#X obj 504 191 s env\$1delbgr;
#X obj 409 189 s env\$1revbgr;
#X msg 407 135 color 1 -1;
#X msg 504 168 color 1 -1;
#X msg 540 147 color 10 -1;
#X msg 424 162 color 10 -1;
#X msg 244 112 \$1 \$2;
#X obj 244 90 pack f f;
#X obj 244 61 r env\$1enable;
#X obj 269 323 +;
#X obj 254 349 +;
#X floatatom 331 286 5 0 0 0 - - -;
#X floatatom 330 327 5 0 0 0 - - -;
#X obj 243 274 * 65536;
#X obj 269 298 * 256;
#X obj 244 159 * 255;
#X obj 254 371 expr -1-$f1;
#X obj 243 220 expr 255 \; int(255-$f1*0.4) \; int(255-$f1*0.3) \;
;
#X obj 254 413 s env\$1midicnv;
#X msg 254 392 color \$1 -1;
#X msg 319 111 0 0;
#X obj 319 91 loadbang;
#X obj 244 138 line 0 100;
#X msg 170 106 1 1000;
#X msg 343 390 color \$1 0;
#X obj 345 413 s env\$1activecnv;
#X obj 289 3 r globalenvfadetime;
#X connect 0 0 2 0;
#X connect 1 0 3 0;
#X connect 2 0 6 0;
#X connect 2 1 9 0;
#X connect 3 0 7 0;
#X connect 3 1 8 0;
#X connect 6 0 5 0;
#X connect 7 0 4 0;
#X connect 8 0 4 0;
#X connect 9 0 5 0;
#X connect 10 0 26 0;
#X connect 11 0 10 0;
#X connect 12 0 11 0;
#X connect 13 0 14 1;
#X connect 14 0 20 0;
#X connect 17 0 14 0;
#X connect 18 0 13 0;
#X connect 19 0 21 0;
#X connect 20 0 23 0;
#X connect 20 0 28 0;
#X connect 21 0 17 0;
#X connect 21 1 18 0;
#X connect 21 2 13 1;
#X connect 21 2 15 0;
#X connect 23 0 22 0;
#X connect 24 0 26 0;
#X connect 25 0 24 0;
#X connect 26 0 19 0;
#X connect 27 0 26 0;
#X connect 28 0 29 0;
#X connect 30 0 11 1;
#X restore 358 51 pd color_handler;
#X msg 352 448 0;
#X obj 330 499 s env\$1enable;
#N canvas 1391 588 450 300 delayctl 0;
#X obj 101 101 cnv 15 73 94 empty env\$1delbgr Delay 5 10 1 12 -166441
-1 0;
#X obj 156 104 tgl 15 0 env\$1delen env\$1delenr empty 17 7 0 10 -262144
-1 -1 0 1;
#X obj 108 122 knob 25 25 0 127 0 0 env\$1delmix env\$1delmixr Mix
6 30 1 9 -262144 -1 -1 1200 1;
#X obj 140 122 knob 25 25 0 127 0 0 env\$1deltime env\$1deltimer Time
4 30 1 9 -262144 -1 -1 323 1;
#X obj 109 159 knob 25 25 0 127 0 0 env\$1delflutter env\$1delflutterr
Flutter -2 30 1 9 -262144 -1 -1 1200 1;
#X obj 140 159 knob 25 25 0 127 0 0 env\$1delfdbk env\$1delfdbkr Fdback
-3 30 1 9 -262144 -1 -1 567 1;
#X text 199 238 comment;
#X text 116 152 v;
#X coords 0 -1 1 1 75 96 1 100 100;
#X restore 206 140 pd delayctl;
#N canvas 1166 399 450 300 reverbctl 0;
#X obj 101 101 cnv 15 53 94 empty env\$1revbgr Reverb 2 10 1 11 -233017
-1 0;
#X obj 138 102 tgl 15 0 env\$1reven env\$1revenr empty 17 7 0 10 -262144
-1 -1 1 1;
#X obj 117 125 knob 22 22 0 127 0 0 env\$1revsize env\$1revsizer Size
1 26 1 9 -262144 -1 -1 457 1;
#X obj 117 159 knob 22 22 0 127 0 0 env\$1revdamp env\$1revdampr Damping
-9 26 1 9 -262144 -1 -1 1500 1;
#X coords 0 -1 1 1 55 96 2 100 100;
#X restore 147 140 pd reverbctl;
#X obj 108 173 knob 32 32 0 127 0 0 env\$1trim env\$1trimr Trim 2 -11
1 11 -262144 -1 -1 1650 1;
#X obj 528 690 vline~;
#X msg 528 669 \$1 50;
#X obj 528 648 expr exp(4.16*$f1/127-2.08);
#X obj 528 627 r env\$1trim;
#X obj 375 858 throw~ master_out_L;
#X obj 501 859 throw~ master_out_R;
#X obj 512 601 r globalenvfadetime;
#X obj 461 580 r env\$1enable;
#X obj 461 642 vline~;
#X obj 379 657 *~;
#X obj 411 657 *~;
#X obj 379 728 *~;
#X obj 411 728 *~;
#X obj 443 400 route trim;
#X obj 443 507 s env\$1trimr;
#X obj 499 487 s env\$1revenr;
#X obj 558 467 s env\$1revsizer;
#X obj 690 568 s env\$1delenr;
#X obj 745 547 s env\$1delmixr;
#X obj 801 526 s env\$1deltimer;
#X obj 913 485 s env\$1delfdbkr;
#X obj 105 215 bng 20 250 50 0 empty empty T 7 10 0 10 -262144 -1 -1
;
#X obj 110 258 i \$1;
#X obj 587 148 s reqglobalenvfadetime;
#X obj 587 126 loadbang;
#X obj 461 622 pack f 10;
#X obj 617 447 s env\$1revdampr;
#X obj 593 221 loadbang;
#X text 961 256 <- defaults;
#X obj 985 509 route enable;
#X obj 985 531 s env\$1enable;
#X msg 110 279 \; to_envs sel \$1;
#X obj 348 546 r~ to_all_fx_L;
#X obj 453 546 r~ to_all_fx_R;
#X obj 319 470 tgl 15 0 empty empty empty 17 7 0 10 -262144 -1 -1 1
1;
#X obj 163 102 cnv 15 120 15 empty env\$1midicnv _40 94 7 1 14 -260525
-1 0;
#X obj 193 102 cnv 15 50 15 empty env\$1activecnv Active 6 7 1 14 -260525
-262144 0;
#X obj 499 427 route rev_en rev_size rev_damping;
#N canvas 614 626 450 300 reverb_tank 0;
#X obj 75 43 inlet~;
#X obj 125 43 inlet~;
#X obj 70 249 outlet~;
#X obj 148 246 outlet~;
#X obj 181 170 freeverb~;
#X obj 60 178 *~ 0;
#X obj 108 179 *~ 0;
#X obj 75 117 r env\$1reven;
#X obj 75 142 expr 1-$f1;
#X obj 182 106 *~ 0;
#X obj 230 107 *~ 0;
#X obj 246 55 r env\$1reven;
#X obj 286 91 r env\$1revsize;
#X obj 286 112 / 127;
#X msg 286 136 roomsize \$1;
#X obj 408 89 r env\$1revdamp;
#X obj 408 109 / 127;
#X msg 408 135 damping \$1;
#X connect 0 0 5 0;
#X connect 0 0 9 0;
#X connect 1 0 6 0;
#X connect 1 0 10 0;
#X connect 4 0 2 0;
#X connect 4 1 3 0;
#X connect 5 0 2 0;
#X connect 6 0 3 0;
#X connect 7 0 8 0;
#X connect 8 0 5 1;
#X connect 8 0 6 1;
#X connect 9 0 4 0;
#X connect 10 0 4 1;
#X connect 11 0 9 1;
#X connect 11 0 10 1;
#X connect 12 0 13 0;
#X connect 13 0 14 0;
#X connect 14 0 4 0;
#X connect 15 0 16 0;
#X connect 16 0 17 0;
#X connect 17 0 4 0;
#X restore 379 754 pd reverb_tank;
#X obj 266 122 bng 15 250 50 0 empty empty R 4 7 0 10 -262144 -1 -1
;
#X msg 596 242 trim 63.5 \, del_mix 25 \, del_time 70 \, del_fdbk 30
\, del_flutter 63.5 80 \, rev_size 70 \, rev_damping 50 \, rev_en 0
\, del_en 0;
#N canvas 787 155 802 693 delaytank 0;
#X obj 58 13 inlet~;
#X obj 119 24 inlet~;
#X obj 43 103 expr 1-$f1;
#X obj 150 67 *~ 0;
#X obj 198 68 *~ 0;
#X obj 214 16 r env\$1delen;
#X obj 43 78 r env\$1delen;
#X obj 170 154 r env\$1deltime;
#X obj 170 175 expr $f1/0.128 + 2.3;
#X obj 323 54 *~ 0;
#X obj 365 63 *~ 0;
#X obj 344 33 / 128;
#X obj 344 0 r env\$1delfdbk;
#X obj 171 506 *~;
#X obj 275 525 *~;
#X obj 195 506 *~;
#X obj 250 524 *~;
#X obj 322 315 expr if($f1<63 \, 1 \, 1-($f1-63)/64) \; if($f1<63 \,
$f1/63 \, 1) \;;
#X obj 322 368 vline~;
#X msg 322 348 \$1 50;
#X obj 523 368 vline~;
#X msg 523 348 \$1 50;
#X obj 28 139 *~ 1;
#X obj 76 140 *~ 1;
#X obj 158 104 delwrite~ env\$1delaylineL 2000;
#X obj 226 126 delwrite~ env\$1delaylineR 2000;
#X floatatom 577 341 5 0 0 0 - - -;
#X obj 362 284 r env\$1delmix;
#X obj 97 605 outlet~;
#X obj 154 583 outlet~;
#X floatatom 394 358 5 0 0 0 - - -;
#X obj 158 354 hip~ 184;
#X obj 235 356 hip~ 184;
#X obj 158 374 lop~ 2000;
#X obj 234 376 lop~ 2000;
#X obj 161 271 delread~ env\$1delaylineL;
#X obj 204 294 delread~ env\$1delaylineR;
#X obj 169 247 + 0;
#X obj 184 224 t b f;
#X obj 215 249 + 0;
#X obj 230 226 t b f;
#N canvas 1448 359 450 300 flutter 0;
#X obj 33 136 outlet;
#X obj 81 137 outlet;
#X obj 52 9 r env\$1delflutter;
#X obj 54 88 expr $f1 \; -$f1;
#X obj 8 8 inlet;
#X obj 52 31 t b f;
#X floatatom 135 155 5 0 0 0 - - -;
#X floatatom 174 160 5 0 0 0 - - -;
#X obj 52 60 expr 0.5*$f1*($f2-63.5)/70;
#X floatatom 183 91 5 0 0 0 - - -;
#X connect 2 0 5 0;
#X connect 3 0 0 0;
#X connect 3 0 6 0;
#X connect 3 1 1 0;
#X connect 3 1 7 0;
#X connect 4 0 8 0;
#X connect 4 0 9 0;
#X connect 5 0 8 0;
#X connect 5 1 8 1;
#X connect 8 0 3 0;
#X restore 186 198 pd flutter;
#X floatatom 123 261 5 0 0 0 - - -;
#X floatatom 314 251 5 0 0 0 - - -;
#X connect 0 0 3 0;
#X connect 0 0 22 0;
#X connect 1 0 4 0;
#X connect 1 0 23 0;
#X connect 2 0 22 1;
#X connect 2 0 23 1;
#X connect 3 0 24 0;
#X connect 3 0 13 0;
#X connect 4 0 25 0;
#X connect 4 0 16 0;
#X connect 5 0 3 1;
#X connect 5 0 4 1;
#X connect 6 0 2 0;
#X connect 7 0 8 0;
#X connect 8 0 37 0;
#X connect 8 0 41 0;
#X connect 8 0 39 0;
#X connect 9 0 24 0;
#X connect 10 0 25 0;
#X connect 11 0 9 1;
#X connect 11 0 10 1;
#X connect 12 0 11 0;
#X connect 13 0 28 0;
#X connect 14 0 29 0;
#X connect 15 0 28 0;
#X connect 16 0 29 0;
#X connect 17 0 19 0;
#X connect 17 0 30 0;
#X connect 17 1 21 0;
#X connect 17 1 26 0;
#X connect 18 0 13 1;
#X connect 18 0 16 1;
#X connect 19 0 18 0;
#X connect 20 0 15 1;
#X connect 20 0 14 1;
#X connect 21 0 20 0;
#X connect 22 0 28 0;
#X connect 23 0 29 0;
#X connect 27 0 17 0;
#X connect 31 0 33 0;
#X connect 32 0 34 0;
#X connect 33 0 15 0;
#X connect 33 0 10 0;
#X connect 34 0 14 0;
#X connect 34 0 9 0;
#X connect 35 0 31 0;
#X connect 36 0 32 0;
#X connect 37 0 35 0;
#X connect 37 0 42 0;
#X connect 38 0 37 0;
#X connect 38 1 37 1;
#X connect 39 0 36 0;
#X connect 39 0 43 0;
#X connect 40 0 39 0;
#X connect 40 1 39 1;
#X connect 41 0 38 0;
#X connect 41 1 40 0;
#X restore 379 782 pd delaytank;
#X obj 690 464 route del_en del_mix del_time del_flutter del_fdbk;
#X obj 857 505 s env\$1delflutterr;
#X connect 0 0 4 0;
#X connect 0 1 3 0;
#X connect 1 0 2 0;
#X connect 2 0 12 0;
#X connect 3 0 1 0;
#X connect 4 0 1 0;
#X connect 5 0 8 0;
#X connect 6 0 5 0;
#X connect 7 0 12 0;
#X connect 8 0 9 0;
#X connect 9 1 10 0;
#X connect 10 0 19 0;
#X connect 10 1 7 0;
#X connect 12 0 0 0;
#X connect 12 0 5 1;
#X connect 14 0 15 0;
#X connect 15 0 16 0;
#X connect 16 1 33 0;
#X connect 18 0 28 0;
#X connect 19 0 28 0;
#X connect 20 0 21 0;
#X connect 20 0 28 0;
#X connect 22 0 28 0;
#X connect 23 0 74 0;
#X connect 23 1 35 0;
#X connect 25 0 26 0;
#X connect 26 0 28 0;
#X connect 27 0 26 1;
#X connect 28 0 17 0;
#X connect 28 1 13 0;
#X connect 28 2 23 0;
#X connect 28 3 53 0;
#X connect 29 0 15 1;
#X connect 31 0 30 0;
#X connect 32 0 31 0;
#X connect 33 0 32 0;
#X connect 35 0 74 0;
#X connect 40 0 51 1;
#X connect 40 0 52 1;
#X connect 41 0 40 0;
#X connect 42 0 41 0;
#X connect 43 0 42 0;
#X connect 46 0 65 1;
#X connect 47 0 65 0;
#X connect 48 0 49 1;
#X connect 48 0 50 1;
#X connect 49 0 51 0;
#X connect 50 0 52 0;
#X connect 51 0 78 0;
#X connect 52 0 78 1;
#X connect 53 0 54 0;
#X connect 53 1 77 0;
#X connect 61 0 62 0;
#X connect 62 0 71 0;
#X connect 64 0 63 0;
#X connect 65 0 48 0;
#X connect 67 0 80 0;
#X connect 69 0 70 0;
#X connect 69 1 24 0;
#X connect 72 0 49 0;
#X connect 73 0 50 0;
#X connect 74 0 36 0;
#X connect 77 0 55 0;
#X connect 77 1 56 0;
#X connect 77 2 66 0;
#X connect 77 3 82 0;
#X connect 78 0 81 0;
#X connect 78 1 81 1;
#X connect 78 1 45 0;
#X connect 79 0 80 0;
#X connect 80 0 28 0;
#X connect 81 0 44 0;
#X connect 82 0 57 0;
#X connect 82 1 58 0;
#X connect 82 2 59 0;
#X connect 82 3 83 0;
#X connect 82 4 60 0;
#X connect 82 5 69 0;
#X coords 0 -1 1 1 185 140 1 100 100;
