#N canvas 188 178 1096 711 10;
#X obj -21 107 sel 0 1;
#X obj -21 174 pack f \$1;
#X msg -21 202 color \$1 -1;
#X msg 8 148 13;
#X msg -21 148 0;
#X obj 0 257 spigot;
#X obj 0 235 r globalmidi;
#X msg 53 297 0;
#X msg 0 277 \$2 \$1;
#X obj 0 297 route 0;
#X obj 39 319 t a b;
#X obj 101 119 cnv 15 183 120 empty env\$1backdrop empty 3 54 1 8 -225271
-1 0;
#X obj 105 124 tgl 15 0 bgm\$1midilearn bgm\$1midilearnr MidiLearn
17 7 1 10 -262144 -1 -1 0 1;
#X obj 262 102 cnv 15 20 15 empty env\$1midicnv _46 -6 7 1 14 -228856
-66577 0;
#N canvas 1323 420 543 300 handlemidiset 0;
#X obj 62 28 inlet;
#X obj 63 60 sel 0;
#X msg 63 93 0;
#X obj 157 115 i;
#X obj 106 92 t f f f b;
#X obj 106 116 outlet;
#X msg 182 228 label _\$1;
#X msg 94 156 symbol;
#X msg 157 136 \; to_midi \$1 midilink 0;
#X obj 182 278 s env\$1midicnv;
#X obj 48 202 s env\$1midilink;
#X obj -96 200 s env\$1playcmd;
#X connect 0 0 1 0;
#X connect 1 0 2 0;
#X connect 1 1 4 0;
#X connect 2 0 7 0;
#X connect 2 0 10 0;
#X connect 2 0 11 0;
#X connect 3 0 8 0;
#X connect 4 0 5 0;
#X connect 4 0 6 0;
#X connect 4 1 10 0;
#X connect 4 2 3 1;
#X connect 4 3 3 0;
#X connect 6 0 9 0;
#X connect 7 0 6 0;
#X restore 285 406 pd handlemidiset;
#X obj 95 441 r globalmidi;
#X obj 95 483 route;
#X obj 95 506 sel 0;
#N canvas 612 393 949 414 saver 0;
#X obj 85 -119 inlet;
#X msg 85 -98 bang;
#X obj 240 360 textfile;
#X obj 82 365 print Saved;
#X obj 92 248 r sessiondir;
#X obj 48 269 pack f s;
#X msg 48 220 \$1;
#X obj 91 322 t s s;
#X msg 141 339 write \$1;
#X obj 85 153 t a a;
#X obj 106 -77 r env\$1midilink;
#X obj 127 -57 r env\$1trim;
#X obj 148 -37 r env\$1reven;
#X obj 169 -16 r env\$1revsize;
#X obj 190 5 r env\$1delen;
#X obj 204 25 r env\$1delmix;
#X obj 215 45 r env\$1deltime;
#X obj 224 64 r env\$1deltrip;
#X obj 233 85 r env\$1delfdbk;
#X msg 48 291 symbol \$2/env\$1.conf;
#X obj 85 132 pack \$1 f f f f f f f f f f;
#X obj 246 107 r env\$1revdamp;
#X msg 158 181 set name env\$1 \, add midilink \$2 \, add trim \$3
\, add rev_en \$4 \, add rev_size \$5 \, add rev_damp \$11 \, add del_en
\$6 \, add del_mix \$7 \, add del_time \$8 \, add del_trip \$9 \, add
del_feedback \$10;
#X connect 0 0 1 0;
#X connect 1 0 20 0;
#X connect 4 0 5 1;
#X connect 5 0 19 0;
#X connect 6 0 5 0;
#X connect 7 0 3 0;
#X connect 7 1 8 0;
#X connect 8 0 2 0;
#X connect 9 0 6 0;
#X connect 9 1 22 0;
#X connect 10 0 20 1;
#X connect 11 0 20 2;
#X connect 12 0 20 3;
#X connect 13 0 20 4;
#X connect 14 0 20 5;
#X connect 15 0 20 6;
#X connect 16 0 20 7;
#X connect 17 0 20 8;
#X connect 18 0 20 9;
#X connect 19 0 7 0;
#X connect 20 0 9 0;
#X connect 21 0 20 10;
#X connect 22 0 2 0;
#X restore 229 406 pd saver;
#X obj 295 316 r global;
#X msg 39 342 midilink \$2;
#X obj 229 360 r env\$1;
#X obj 405 364 print env\$1;
#X obj 352 316 r to_envs;
#X obj 319 428 sel \$1;
#X obj 1101 609 print [WN] Unrecognised env command;
#X obj 414 316 r to_midi;
#X obj 414 337 route;
#X obj 481 316 r env\$1midilink;
#X obj 229 386 route save midilink sel;
#X obj 122 462 r env\$1midilink;
#X obj 122 586 s to_envs;
#X msg 122 566 sel \$1;
#X obj 122 546 i \$1;
#X msg 122 526 bang;
#N canvas 1014 492 622 455 color_handler 0;
#X obj 81 71 inlet;
#X obj 116 369 s env\$1backdrop;
#X obj 59 199 t b b;
#X obj 80 160 sel 0 1;
#X obj 45 275 delay;
#X obj 72 255 r globalenvfadetime;
#X msg 43 234 stop;
#X obj 99 180 t b b;
#X obj -11 255 loadbang;
#X msg 45 297 color 8 -1;
#X msg 152 199 color 6 -1;
#X msg 86 222 color 7 -1;
#X obj 371 72 r env\$1reven;
#X obj 451 72 r env\$1delen;
#X obj 388 97 sel 0 1;
#X obj 467 97 sel 0 1;
#X obj 477 177 s env\$1delbgr;
#X obj 382 175 s env\$1revbgr;
#X msg 380 121 color 1 -1;
#X msg 477 154 color 1 -1;
#X msg 513 133 color 10 -1;
#X msg 397 148 color 10 -1;
#X obj 120 71 r env\$1enable;
#X connect 0 0 3 0;
#X connect 2 0 4 0;
#X connect 2 1 11 0;
#X connect 3 0 2 0;
#X connect 3 1 7 0;
#X connect 4 0 9 0;
#X connect 5 0 4 1;
#X connect 6 0 4 0;
#X connect 7 0 10 0;
#X connect 7 1 6 0;
#X connect 8 0 9 0;
#X connect 9 0 1 0;
#X connect 10 0 1 0;
#X connect 11 0 1 0;
#X connect 12 0 14 0;
#X connect 13 0 15 0;
#X connect 14 0 18 0;
#X connect 14 1 21 0;
#X connect 15 0 19 0;
#X connect 15 1 20 0;
#X connect 18 0 17 0;
#X connect 19 0 16 0;
#X connect 20 0 16 0;
#X connect 21 0 17 0;
#X connect 22 0 3 0;
#X restore 358 51 pd color_handler;
#X msg 352 448 0;
#X obj 330 499 s env\$1enable;
#N canvas 1230 348 450 300 delayctl 0;
#X obj 101 101 cnv 15 73 94 empty env\$1delbgr Delay 5 10 1 12 -166441
-1 0;
#X obj 156 104 tgl 15 0 env\$1delen env\$1delenr empty 17 7 0 10 -262144
-1 -1 0 1;
#X obj 108 122 knob 25 25 0 127 0 0 env\$1delmix env\$1delmixr Mix
6 30 1 9 -262144 -1 -1 1039 1;
#X obj 140 122 knob 25 25 0 127 0 0 env\$1deltime env\$1deltimer Time
4 30 1 9 -262144 -1 -1 2400 1;
#X obj 109 159 knob 25 25 0 127 0 0 env\$1deltrip env\$1deltripr Trip
4 30 1 9 -262144 -1 -1 0 1;
#X obj 140 159 knob 25 25 0 127 0 0 env\$1delfdbk env\$1delfdbkr Fdback
-3 30 1 9 -262144 -1 -1 756 1;
#X coords 0 -1 1 1 75 96 1 100 100;
#X restore 148 140 pd delayctl;
#N canvas 1166 399 450 300 reverbctl 0;
#X obj 101 101 cnv 15 53 94 empty env\$1revbgr Reverb 2 10 1 11 -166441
-1 0;
#X obj 138 102 tgl 15 0 env\$1reven env\$1revenr empty 17 7 0 10 -262144
-1 -1 0 1;
#X obj 117 125 knob 22 22 0 127 0 0 env\$1revsize env\$1revsizer Size
1 26 1 9 -262144 -1 -1 1157 1;
#X obj 117 159 knob 22 22 0 127 0 0 env\$1revdamp env\$1revdampr Damping
-9 26 1 9 -262144 -1 -1 0 1;
#X coords 0 -1 1 1 55 96 2 100 100;
#X restore 226 140 pd reverbctl;
#X obj 108 173 knob 32 32 0 127 0 0 env\$1trim env\$1trimr Trim 2 -11
1 11 -262144 -1 -1 1550 1;
#X obj 528 690 vline~;
#X msg 528 669 \$1 50;
#X obj 528 648 expr exp(4.16*$f1/127-2.08);
#X obj 528 627 r env\$1trim;
#X obj 375 858 throw~ master_out_L;
#X obj 501 859 throw~ master_out_R;
#X obj 512 601 r globalenvfadetime;
#X obj 461 580 r env\$1enable;
#X obj 461 642 vline~;
#X obj 379 657 *~;
#X obj 411 657 *~;
#X obj 379 728 *~;
#X obj 411 728 *~;
#X obj 443 400 route trim;
#X obj 690 464 route del_en del_mix del_time del_trip del_fdbk;
#X obj 443 507 s env\$1trimr;
#X obj 499 487 s env\$1revenr;
#X obj 558 467 s env\$1revsizer;
#X obj 690 568 s env\$1delenr;
#X obj 745 547 s env\$1delmixr;
#X obj 801 526 s env\$1deltimer;
#X obj 857 505 s env\$1deltripr;
#X obj 913 485 s env\$1delfdbkr;
#X obj 105 215 bng 20 250 50 0 empty empty empty 17 7 0 10 -262144
-1 -1;
#X obj 110 258 i \$1;
#X obj 587 148 s reqglobalenvfadetime;
#X obj 587 126 loadbang;
#X obj 461 622 pack f 10;
#X obj 499 427 route rev_en rev_size rev_damp;
#X obj 617 447 s env\$1revdampr;
#X obj 626 259 loadbang;
#X text 984 284 <- defaults;
#X obj 985 509 route enable;
#X obj 985 531 s env\$1enable;
#X msg 110 279 \; to_envs sel \$1;
#X msg 626 279 trim 63.5 \, del_mix 55 \, del_time 127 \, del_fdbk
40 \, rev_size 70 \, rev_damping 50 \, enable 0 \, rev_en 0 \, del_en
0;
#X obj 348 546 r~ to_all_fx_L;
#X obj 453 546 r~ to_all_fx_R;
#N canvas 999 154 802 693 fxtank 0;
#X obj 58 13 inlet~;
#X obj 119 24 inlet~;
#X obj 43 103 expr 1-$f1;
#X obj 150 67 *~ 0;
#X obj 198 68 *~ 0;
#X obj 214 16 r env\$1delen;
#X obj 43 78 r env\$1delen;
#X obj 161 271 vd~ env\$1delaylineL;
#X obj 186 292 vd~ env\$1delaylineR;
#X obj 170 240 +~ 0;
#X obj 191 199 r env\$1deltime;
#X obj 191 220 expr $f1/0.128 + 2.3;
#N canvas 1271 496 450 363 tripballs 0;
#X obj 55 270 outlet~;
#X obj 84 22 r env\$1deltrip;
#X obj 55 190 osc~ 0;
#X obj 84 46 sel 0;
#X msg 84 67 0;
#X obj 140 63 moses 63;
#X obj 140 83 expr 1+3*pow($f1/63 \, 2) \; 10+$f1;
#X obj 185 117 expr 1+30*pow(($f1-63)/63 \, 2) \; 3*$f1;
#X obj 125 200 vline~;
#X msg 131 176 \$1 50;
#X obj 55 219 *~;
#X obj 55 244 +~;
#X connect 1 0 3 0;
#X connect 2 0 10 0;
#X connect 3 0 4 0;
#X connect 3 1 5 0;
#X connect 4 0 2 1;
#X connect 4 0 2 0;
#X connect 5 0 6 0;
#X connect 5 1 7 0;
#X connect 6 0 2 0;
#X connect 6 1 9 0;
#X connect 7 0 2 0;
#X connect 7 1 9 0;
#X connect 8 0 10 1;
#X connect 8 0 11 1;
#X connect 9 0 8 0;
#X connect 10 0 11 0;
#X connect 11 0 0 0;
#X restore 170 177 pd tripballs;
#X obj 310 63 *~ 0;
#X obj 352 72 *~ 0;
#X obj 373 51 / 128;
#X obj 331 42 / 128;
#X obj 331 9 r env\$1delfdbk;
#X obj 373 30 r env\$1delfdbk;
#X obj 178 481 *~;
#X obj 270 481 *~;
#X obj 202 481 *~;
#X obj 245 480 *~;
#X obj 185 324 r env\$1delmix;
#X obj 322 315 expr if($f1<63 \, 1 \, 1-($f1-63)/64) \; if($f1<63 \,
$f1/63 \, 1) \;;
#X obj 322 368 vline~;
#X msg 322 348 \$1 50;
#X obj 523 368 vline~;
#X msg 523 348 \$1 50;
#X obj 28 139 *~ 1;
#X obj 76 140 *~ 1;
#X floatatom 319 238 5 0 0 0 - - -;
#X obj 158 104 delwrite~ env\$1delaylineL 2000;
#X obj 226 126 delwrite~ env\$1delaylineR 2000;
#X obj 651 253 scope~ 130 130 256 3 128 -1 1 0 0 0 0 102 255 51 135
135 135 0;
#X floatatom 577 341 5 0 0 0 - - -;
#X obj 362 284 r env\$1delmix;
#X obj 141 768 outlet~;
#X obj 219 765 outlet~;
#X obj 252 689 freeverb~;
#X obj 131 697 *~ 0;
#X obj 179 698 *~ 0;
#X obj 146 636 r env\$1reven;
#X obj 146 661 expr 1-$f1;
#X obj 253 625 *~ 0;
#X obj 301 626 *~ 0;
#X obj 317 574 r env\$1reven;
#X obj 357 610 r env\$1revsize;
#X obj 357 631 / 127;
#X msg 357 655 roomsize \$1;
#X obj 479 608 r env\$1revdamp;
#X obj 479 628 / 127;
#X msg 479 654 damping \$1;
#X obj 164 514 +~ 0;
#X obj 233 520 +~ 0;
#X floatatom 394 358 5 0 0 0 - - -;
#X connect 0 0 3 0;
#X connect 0 0 19 0;
#X connect 0 0 29 0;
#X connect 1 0 4 0;
#X connect 1 0 30 0;
#X connect 1 0 22 0;
#X connect 2 0 29 1;
#X connect 2 0 30 1;
#X connect 3 0 32 0;
#X connect 4 0 33 0;
#X connect 5 0 3 1;
#X connect 5 0 4 1;
#X connect 6 0 2 0;
#X connect 7 0 21 0;
#X connect 7 0 13 0;
#X connect 8 0 14 0;
#X connect 8 0 20 0;
#X connect 9 0 7 0;
#X connect 9 0 8 0;
#X connect 10 0 11 0;
#X connect 11 0 9 1;
#X connect 11 0 31 0;
#X connect 12 0 9 0;
#X connect 13 0 32 0;
#X connect 14 0 33 0;
#X connect 15 0 14 1;
#X connect 16 0 13 1;
#X connect 17 0 16 0;
#X connect 18 0 15 0;
#X connect 19 0 53 0;
#X connect 20 0 54 0;
#X connect 21 0 53 0;
#X connect 22 0 54 0;
#X connect 24 0 26 0;
#X connect 24 0 55 0;
#X connect 24 1 28 0;
#X connect 24 1 35 0;
#X connect 25 0 19 1;
#X connect 25 0 22 1;
#X connect 26 0 25 0;
#X connect 27 0 21 1;
#X connect 27 0 20 1;
#X connect 28 0 27 0;
#X connect 29 0 53 0;
#X connect 30 0 54 0;
#X connect 36 0 24 0;
#X connect 39 0 37 0;
#X connect 39 1 38 0;
#X connect 40 0 37 0;
#X connect 41 0 38 0;
#X connect 42 0 43 0;
#X connect 43 0 40 1;
#X connect 43 0 41 1;
#X connect 44 0 39 0;
#X connect 45 0 39 1;
#X connect 46 0 44 1;
#X connect 46 0 45 1;
#X connect 47 0 48 0;
#X connect 48 0 49 0;
#X connect 49 0 39 0;
#X connect 50 0 51 0;
#X connect 51 0 52 0;
#X connect 52 0 39 0;
#X connect 53 0 40 0;
#X connect 53 0 44 0;
#X connect 54 0 41 0;
#X connect 54 0 45 0;
#X restore 381 803 pd fxtank;
#X obj 319 470 tgl 15 0 empty empty empty 17 7 0 10 -262144 -1 -1 0
1;
#X connect 0 0 4 0;
#X connect 0 1 3 0;
#X connect 1 0 2 0;
#X connect 2 0 12 0;
#X connect 3 0 1 0;
#X connect 4 0 1 0;
#X connect 5 0 8 0;
#X connect 6 0 5 0;
#X connect 7 0 12 0;
#X connect 8 0 9 0;
#X connect 9 1 10 0;
#X connect 10 0 20 0;
#X connect 10 1 7 0;
#X connect 12 0 0 0;
#X connect 12 0 5 1;
#X connect 15 0 16 0;
#X connect 16 0 17 0;
#X connect 17 1 34 0;
#X connect 19 0 29 0;
#X connect 20 0 29 0;
#X connect 21 0 22 0;
#X connect 21 0 29 0;
#X connect 23 0 29 0;
#X connect 24 0 80 0;
#X connect 24 1 36 0;
#X connect 26 0 27 0;
#X connect 27 0 29 0;
#X connect 28 0 27 1;
#X connect 29 0 18 0;
#X connect 29 1 14 0;
#X connect 29 2 24 0;
#X connect 29 3 54 0;
#X connect 30 0 16 1;
#X connect 32 0 31 0;
#X connect 33 0 32 0;
#X connect 34 0 33 0;
#X connect 36 0 80 0;
#X connect 41 0 52 1;
#X connect 41 0 53 1;
#X connect 42 0 41 0;
#X connect 43 0 42 0;
#X connect 44 0 43 0;
#X connect 47 0 68 1;
#X connect 48 0 68 0;
#X connect 49 0 50 1;
#X connect 49 0 51 1;
#X connect 50 0 52 0;
#X connect 51 0 53 0;
#X connect 52 0 79 0;
#X connect 53 0 79 1;
#X connect 54 0 56 0;
#X connect 54 1 69 0;
#X connect 55 0 59 0;
#X connect 55 1 60 0;
#X connect 55 2 61 0;
#X connect 55 3 62 0;
#X connect 55 4 63 0;
#X connect 55 5 73 0;
#X connect 64 0 65 0;
#X connect 65 0 75 0;
#X connect 67 0 66 0;
#X connect 68 0 49 0;
#X connect 69 0 57 0;
#X connect 69 1 58 0;
#X connect 69 2 70 0;
#X connect 69 3 55 0;
#X connect 71 0 76 0;
#X connect 73 0 74 0;
#X connect 73 1 25 0;
#X connect 76 0 29 0;
#X connect 77 0 50 0;
#X connect 78 0 51 0;
#X connect 79 0 45 0;
#X connect 79 1 46 0;
#X connect 80 0 37 0;
#X coords 0 -1 1 1 185 140 1 100 100;
