#N canvas 465 76 1216 820 10;
#N canvas 860 80 731 725 masterctl 0;
#X obj 51 35 notein;
#X obj 51 56 pack f f;
#X obj 51 77 s globalmidi;
#X obj 281 104 bng 15 250 50 0 empty globalmidi empty 17 7 0 10 -262144
-261682 -1;
#X floatatom 245 103 5 0 0 0 - - -;
#X obj 256 8 catch~ master_out_L;
#X obj 384 8 catch~ master_out_R;
#X obj 253 127 vu 15 120 empty empty -1 -8 0 10 -66577 -1 1 0;
#X obj 206 127 vu 15 120 empty empty -1 -8 0 10 -66577 -1 0 0;
#X obj 334 215 pvu~ 30 30;
#X obj 405 215 pvu~ 30 30;
#X obj 227 127 vsl 20 120 0 127 0 0 globalvolume globalvolumer empty
0 -9 0 10 -262144 -1 -1 5903 1;
#X obj 641 10 loadbang;
#X msg 641 31 \; globalvolumer 63;
#X obj 370 175 *~;
#X obj 402 176 *~;
#X obj 423 30 r globalvolume;
#X obj 420 114 vline~;
#X obj 423 52 expr pow($f1/100 \, 2);
#X msg 418 86 \$1 50;
#X obj 513 214 dac~;
#N canvas 463 410 1052 631 saverloader 0;
#X obj 105 121 bng 15 250 50 0 empty empty Save 17 7 1 10 -262144 -1
-1;
#X obj 105 158 bng 15 250 50 0 empty empty SaveAs... 17 7 1 10 -262144
-1 -1;
#X text 119 102 Session;
#X obj 105 176 bng 15 250 50 0 empty empty Load... 17 7 1 10 -262144
-1 -1;
#X msg 311 222 \; global save;
#X obj 365 34 loadbang;
#X obj 392 97 s sessiondir;
#N canvas 979 505 889 450 loader 0;
#X obj 58 17 inlet;
#X obj 68 108 folder_list;
#X obj 140 57 r sessiondir;
#X obj 210 124 r loader;
#X obj 210 166 textfile;
#X msg 210 145 read \$1 \, rewind \, bang;
#X obj 227 187 t b a;
#X obj 252 304 s;
#X msg 131 88 symbol \$1/*.conf;
#X obj 68 203 list append;
#X obj 149 183 delay 1;
#X obj 68 223 t a;
#X obj 118 268 list;
#X obj 118 291 list split 1;
#X obj 118 312 s loader;
#X obj 101 16 r globalload;
#X obj 385 177 symbol;
#X msg 418 157 symbol \$1;
#X obj 254 229 symbol;
#X obj 385 199 print Loaded;
#X obj 34 63 bng 15 250 50 0 empty empty empty 17 7 0 10 -262144 -1
-1;
#X obj 68 132 t a b;
#X obj 68 80 t b b;
#X obj 254 208 route name filename;
#X obj 309 229 route bang;
#X msg 366 269 filename \$1;
#X obj 366 249 symbol;
#X connect 0 0 22 0;
#X connect 1 0 21 0;
#X connect 2 0 8 0;
#X connect 3 0 5 0;
#X connect 3 0 17 0;
#X connect 4 0 6 0;
#X connect 4 1 12 0;
#X connect 4 1 16 0;
#X connect 5 0 4 0;
#X connect 6 0 4 0;
#X connect 6 1 23 0;
#X connect 8 0 1 1;
#X connect 9 0 11 0;
#X connect 10 0 12 0;
#X connect 11 0 9 1;
#X connect 11 0 12 1;
#X connect 12 0 13 0;
#X connect 13 0 14 0;
#X connect 13 1 12 1;
#X connect 15 0 22 0;
#X connect 16 0 19 0;
#X connect 17 0 16 1;
#X connect 18 0 7 1;
#X connect 20 0 22 0;
#X connect 21 0 9 0;
#X connect 21 1 10 0;
#X connect 22 0 1 0;
#X connect 22 1 9 1;
#X connect 23 0 18 0;
#X connect 23 1 24 0;
#X connect 23 2 7 0;
#X connect 24 1 26 0;
#X connect 25 0 7 0;
#X connect 26 0 25 0;
#X restore 105 274 pd loader;
#X obj 311 159 tof/folderpanel;
#X obj 338 201 s sessiondir;
#X obj 311 180 t b a;
#X obj 105 211 tof/folderpanel;
#X obj 132 253 s sessiondir;
#X obj 105 232 t b a;
#X obj 365 56 t b b;
#X obj 365 118 s globalload;
#X msg 392 76 symbol configs;
#X obj 105 140 bng 15 250 50 0 empty empty Reload 17 7 1 10 -262144
-1 -1;
#X connect 0 0 4 0;
#X connect 1 0 8 0;
#X connect 3 0 11 0;
#X connect 5 0 14 0;
#X connect 8 0 10 0;
#X connect 10 0 4 0;
#X connect 10 1 9 0;
#X connect 11 0 13 0;
#X connect 13 0 7 0;
#X connect 13 1 12 0;
#X connect 14 0 15 0;
#X connect 14 1 16 0;
#X connect 16 0 6 0;
#X connect 17 0 7 0;
#X coords 0 -1 1 1 85 96 2 100 100;
#X restore 109 128 pd saverloader;
#N canvas 1005 631 529 300 printhelp 0;
#X obj 56 59 inlet;
#X obj 56 132 textfile;
#X obj 96 179 print HELP;
#X obj 69 157 t b a;
#X obj 56 88 t b b;
#X msg 123 152 =====================================================
;
#X msg 56 111 read README.txt \, rewind \, bang;
#X connect 0 0 4 0;
#X connect 1 0 3 0;
#X connect 1 1 5 0;
#X connect 3 0 1 0;
#X connect 3 1 2 0;
#X connect 4 0 6 0;
#X connect 4 1 5 0;
#X connect 5 0 2 0;
#X connect 6 0 1 0;
#X restore 272 609 pd printhelp;
#X obj 106 581 bng 15 250 50 0 empty empty Full_Help 17 7 1 10 -262144
-1 -1;
#X obj 303 58 hip~ 20;
#X obj 358 60 hip~ 20;
#X text 107 406 QUICK HELP;
#X text 102 423 -"bgm";
#X text 113 445 loops \, no FX sends;
#X text 104 462 -"sfx;
#X text 146 552 FILES MUST BE WAV;
#X text 159 102 Midi activity;
#X obj 112 233 hsl 80 15 0 127 0 0 globalenvtransition globalenvtransitionr
EnvironmentFade 3 8 1 9 -262144 -1 -1 3944 1;
#N canvas 1251 553 450 300 environment_transition 0;
#X obj 29 35 r globalenvtransition;
#X obj 205 60 s globalenvtransitionr;
#X obj 205 18 loadbang;
#X msg 205 39 63.4;
#X obj 29 130 f;
#X obj 37 104 r reqglobalenvfadetime;
#X obj 29 150 s globalenvfadetime;
#X obj 29 56 expr 10000*pow(($f1/127) \, 2);
#X connect 0 0 7 0;
#X connect 2 0 3 0;
#X connect 3 0 1 0;
#X connect 4 0 6 0;
#X connect 5 0 4 0;
#X connect 7 0 4 0;
#X restore 468 344 pd environment_transition;
#X obj 681 143 catch~ fx_in_L;
#X obj 586 141 catch~ fx_in_R;
#X obj 681 163 s~ to_all_fx_L;
#X obj 587 163 s~ to_all_fx_R;
#X text 114 434 background music \, continuously;
#X text 111 471 sound effect. Oneshot trigger \,;
#X text 105 500 -"env";
#X text 111 481 3 simultaneous voices.;
#X text 113 511 Accoustic environment. Only;
#X text 113 522 one is active at a time.;
#X obj 114 256 channel_strip 1;
#X obj 581 270 catch~ chanstripoutL;
#X obj 594 290 catch~ chanstripoutR;
#X obj 157 256 channel_strip 2;
#X obj 199 256 channel_strip 3;
#X obj 241 256 channel_strip 4;
#X text 106 100 V1.0;
#X connect 0 0 1 0;
#X connect 0 0 4 0;
#X connect 0 1 1 1;
#X connect 1 0 2 0;
#X connect 5 0 24 0;
#X connect 6 0 25 0;
#X connect 9 0 8 0;
#X connect 10 0 7 0;
#X connect 12 0 13 0;
#X connect 14 0 9 0;
#X connect 14 0 20 0;
#X connect 15 0 10 0;
#X connect 15 0 20 1;
#X connect 16 0 18 0;
#X connect 17 0 14 1;
#X connect 17 0 15 1;
#X connect 18 0 19 0;
#X connect 19 0 17 0;
#X connect 23 0 22 0;
#X connect 24 0 14 0;
#X connect 25 0 15 0;
#X connect 34 0 36 0;
#X connect 35 0 37 0;
#X connect 45 0 24 0;
#X connect 46 0 25 0;
#X coords 0 -1 1 1 200 500 2 100 100;
#X restore 21 18 pd masterctl;
