#N canvas 369 0 1252 988 10;
#X obj 155 25 loadbang;
#X obj -33 219 sel 0 1;
#X obj -33 286 pack f \$1;
#X msg -33 314 color \$1 -1;
#X msg -4 260 13;
#X msg -33 260 0;
#X obj 61 257 spigot;
#X obj 61 235 r globalmidi;
#X msg 138 319 0;
#X msg 61 277 \$2 \$1;
#X obj 61 297 route 0;
#X obj 100 319 t a b;
#X obj 272 805 *~;
#X obj 267 690 vline~;
#X msg 267 669 \$1 50;
#X obj 331 807 *~;
#X obj 273 857 throw~ master_out_L;
#X obj 332 836 throw~ master_out_R;
#X obj 101 119 cnv 15 78 120 empty sfx\$1backdrop empty 3 54 1 9 -228856
-1 0;
#X obj 105 199 tgl 15 0 sfx\$1midilearn sfx\$1midilearnr MidiLearn
17 7 1 10 -262144 -1 -1 0 1;
#X obj 105 179 bng 15 250 50 0 sfx\$1loadtrack sfx\$1loadtrackr LoadTrack
17 7 1 10 -262144 -1 -1;
#X obj 110 138 knob 25 25 0 127 0 0 sfx\$1volume sfx\$1volumer Volume
0 -8 1 8 -225271 -261234 -1 1200 1;
#X obj 143 135 knob 15 15 0 127 0 0 sfx\$1fxpre sfx\$1fxprer Pre 17
7 1 8 -262144 -203904 -1 0 1;
#X obj 830 316 s midiout;
#X obj 830 275 pack f f;
#X msg 830 295 \$2 \$1;
#X msg 845 249 0;
#X obj 818 228 t f b;
#X text 858 227 <- clear previous pad before moving;
#X obj 157 102 cnv 15 20 15 empty sfx\$1midicnv _ -6 7 1 14 -228856
-66577 0;
#X obj 384 66 r to_midi;
#X obj 384 87 route;
#N canvas 1323 420 543 300 handlemidiset 0;
#X obj 62 28 inlet;
#X obj 63 60 sel 0;
#X msg 63 93 0;
#X obj 157 115 i;
#X obj 106 92 t f f f b;
#X obj 106 116 outlet;
#X msg 182 228 label _\$1;
#X msg 94 156 symbol;
#X msg 157 136 \; to_midi \$1 midilink 0;
#X obj -96 201 s sfx\$1playcmd;
#X obj 48 202 s sfx\$1midilink;
#X obj 182 278 s sfx\$1midicnv;
#X connect 0 0 1 0;
#X connect 1 0 2 0;
#X connect 1 1 4 0;
#X connect 2 0 7 0;
#X connect 2 0 9 0;
#X connect 2 0 10 0;
#X connect 3 0 8 0;
#X connect 4 0 5 0;
#X connect 4 0 6 0;
#X connect 4 1 10 0;
#X connect 4 2 3 1;
#X connect 4 3 3 0;
#X connect 6 0 11 0;
#X connect 7 0 6 0;
#X restore 332 155 pd handlemidiset;
#N canvas 1014 492 450 300 playstate_handler 0;
#X obj 81 95 sel 0 1 2;
#X msg 212 75 bang;
#X obj 81 12 r sfx\$1playstate;
#X obj 83 164 s sfx\$1backdrop;
#X obj 212 54 r sfx\$1samplesize;
#X msg 227 135 color 4 -1;
#X msg 80 134 color 5 -1;
#X msg 153 134 color 3 -1;
#X connect 0 0 6 0;
#X connect 0 1 7 0;
#X connect 0 2 5 0;
#X connect 1 0 6 0;
#X connect 2 0 0 0;
#X connect 4 0 1 0;
#X connect 5 0 3 0;
#X connect 6 0 3 0;
#X connect 7 0 3 0;
#X restore 713 62 pd playstate_handler;
#N canvas 1286 588 450 300 sampleloader 0;
#X obj 50 -5 inlet;
#X obj 50 14 route bang;
#X obj 50 35 openpanel;
#X obj 50 191 soundfiler;
#X obj 50 87 pack s \$1;
#X obj 295 81 splitfilename;
#X msg 292 195 label \$1;
#X msg 69 119 symbol \$1;
#X obj 69 141 s sfx\$1fullname;
#X obj 50 214 s sfx\$1samplesize;
#X msg 50 169 read -resize \$1 sfx\$2L sfx\$2R;
#X obj 191 0 r sfx\$1loadtrack;
#X obj 295 58 r sfx\$1fullname;
#X obj 370 102 s sfx\$1filename;
#X obj 292 175 r sfx\$1filename;
#X obj 292 216 s sfx\$1backdrop;
#X connect 0 0 1 0;
#X connect 1 0 2 0;
#X connect 1 1 4 0;
#X connect 2 0 4 0;
#X connect 3 0 9 0;
#X connect 4 0 10 0;
#X connect 4 0 7 0;
#X connect 5 1 13 0;
#X connect 6 0 15 0;
#X connect 7 0 8 0;
#X connect 10 0 3 0;
#X connect 11 0 2 0;
#X connect 12 0 5 0;
#X connect 14 0 6 0;
#X restore 523 155 pd sampleloader;
#X obj 95 441 r globalmidi;
#X obj 95 483 route;
#X obj 95 506 sel 0;
#N canvas 612 393 949 414 saver 0;
#X obj 85 -17 inlet;
#X msg 85 4 bang;
#X obj 234 371 textfile;
#X obj 82 365 print Saved;
#X obj 92 248 r sessiondir;
#X obj 48 269 pack f s;
#X msg 48 220 \$1;
#X obj 91 322 t s s;
#X msg 141 339 write \$1;
#X obj 85 153 t a a;
#X obj 106 25 r sfx\$1fullname;
#X obj 127 45 r sfx\$1volume;
#X obj 290 91 r sfx\$1midilink;
#X obj 311 112 r sfx\$1mono;
#X msg 48 291 symbol \$2/sfx\$1.conf;
#X obj 148 69 r sfx\$1fxpre;
#X obj 251 66 r sfx\$1fxpost;
#X obj 85 132 pack \$1 s 63 0 0 0 0;
#X msg 112 173 set name sfx\$1 \, add filename \$2 \, add volume \$3
\, add fxpre \$4 \, add fxpost \$5 \, add midilink \$6 \, add mono
\$7;
#X connect 0 0 1 0;
#X connect 1 0 17 0;
#X connect 4 0 5 1;
#X connect 5 0 14 0;
#X connect 6 0 5 0;
#X connect 7 0 3 0;
#X connect 7 1 8 0;
#X connect 8 0 2 0;
#X connect 9 0 6 0;
#X connect 9 1 18 0;
#X connect 10 0 17 1;
#X connect 11 0 17 2;
#X connect 12 0 17 5;
#X connect 13 0 17 6;
#X connect 14 0 7 0;
#X connect 15 0 17 3;
#X connect 16 0 17 4;
#X connect 17 0 9 0;
#X connect 18 0 2 0;
#X restore 280 132 pd saver;
#X obj 267 648 expr exp(4.16*$f1/127-2.08);
#X obj 354 363 spigot;
#X obj 652 159 route ping;
#X obj 652 182 s ping;
#X obj 346 42 r global;
#N canvas 612 393 949 508 loader 0;
#X obj 72 82 pack \$1 s;
#X obj 123 60 r sessiondir;
#X obj 72 125 s loader;
#X msg 72 62 bang;
#X obj 72 42 inlet;
#X msg 72 104 \$2/sfx\$1.conf;
#X connect 0 0 5 0;
#X connect 1 0 0 1;
#X connect 3 0 0 0;
#X connect 4 0 3 0;
#X connect 5 0 2 0;
#X restore 803 109 pd loader;
#X obj 280 112 route save midilink;
#X msg 100 342 midilink \$2;
#X obj 105 219 tgl 15 0 sfx\$1mono sfx\$1monor Mono 17 7 1 10 -262144
-1 -1 0 1;
#X obj 482 737 *~ 0;
#X obj 541 738 *~ 0;
#X obj 280 86 r sfx\$1;
#X obj 451 66 r sfx\$1midilink;
#X obj 385 178 s sfx\$1volumer;
#X obj 569 177 s sfx\$1monor;
#N canvas 0 0 450 300 (subpatch) 0;
#X array sfx\$1L 100 float 2;
#X coords 0 300 1 299 200 140 0;
#X restore 903 8 graph;
#N canvas 0 0 450 300 (subpatch) 0;
#X array sfx\$1R 100 float 2;
#X coords 0 300 1 299 200 140 0;
#X restore 1113 8 graph;
#X msg 155 45 63.5;
#X obj 354 317 r sfx\$1playcmd;
#X obj 387 340 r sfx\$1samplesize;
#X obj 558 369 r sfx\$1samplesize;
#X obj 354 473 s sfx\$1playstate;
#X obj 231 591 r sfx\$1volume;
#X obj 487 674 tabread4~ sfx\$1L;
#X obj 547 694 tabread4~ sfx\$1R;
#X obj 565 714 r sfx\$1mono;
#X obj 122 551 s sfx\$1playcmd;
#X obj 122 462 r sfx\$1midilink;
#X obj 709 179 print [WN] Unrecognised sfx command;
#X obj 408 111 print sfx\$1;
#X msg 122 529 1;
#X obj 446 398 r sfx\$1duration;
#X obj 411 420 delay;
#X msg 411 441 0;
#X obj 558 389 expr $f1/44.1;
#X obj 558 410 s sfx\$1duration;
#X obj 571 459 r sfx\$1duration;
#X obj 542 439 r sfx\$1samplesize;
#X obj 502 647 vline~;
#X obj 514 479 pack f f f;
#X obj 472 451 counter 2;
#X obj 514 501 route 0 1 2;
#X msg 502 624 0 0 \, \$1 \$2;
#X obj 619 669 tabread4~ sfx\$1L;
#X obj 679 689 tabread4~ sfx\$1R;
#X obj 634 642 vline~;
#X msg 634 619 0 0 \, \$1 \$2;
#X obj 771 662 tabread4~ sfx\$1L;
#X obj 825 691 tabread4~ sfx\$1R;
#X obj 786 635 vline~;
#X msg 786 612 0 0 \, \$1 \$2;
#X obj 354 384 t f b b;
#X obj 995 908 throw~ fx_in_R;
#X obj 897 907 throw~ fx_in_L;
#X obj 897 886 *~;
#X obj 995 878 *~;
#X obj 143 153 knob 15 15 0 127 0 0 sfx\$1fxpost sfx\$1fxpostr Post
17 7 1 8 -262144 -203904 -1 0 1;
#X text 151 118 FX;
#X obj 385 132 route volume fxpre fxpost filename mono;
#X obj 431 198 s sfx\$1fxprer;
#X obj 477 219 s sfx\$1fxpostr;
#X obj 946 835 vline~;
#X msg 916 793 \$1 50;
#X obj 944 885 *~;
#X obj 1024 878 *~;
#X obj 993 834 vline~;
#X obj 499 781 s~ sfx\$1preL~;
#X obj 598 782 s~ sfx\$1preR~;
#X obj 288 764 r~ sfx\$1preL~;
#X obj 346 785 r~ sfx\$1preR~;
#X obj 485 835 s~ sfx\$1postL~;
#X obj 584 836 s~ sfx\$1postR~;
#X obj 1048 835 r~ sfx\$1postL~;
#X obj 1067 856 r~ sfx\$1postR~;
#X text 958 802 FX SENDS;
#X obj 833 856 r~ sfx\$1preL~;
#X obj 853 834 r~ sfx\$1preR~;
#X obj 916 732 r sfx\$1fxpre;
#X obj 1033 737 r sfx\$1fxpost;
#X msg 1033 796 \$1 50;
#X obj 918 770 / 127;
#X obj 231 612 sel 0;
#X msg 231 632 0;
#X obj 153 726 s sfx\$1volumer;
#X msg 131 693 color 6 -1;
#X msg 182 674 color 6 1;
#X obj 1033 768 / 127;
#X connect 0 0 56 0;
#X connect 1 0 5 0;
#X connect 1 1 4 0;
#X connect 2 0 3 0;
#X connect 3 0 19 0;
#X connect 4 0 2 0;
#X connect 5 0 2 0;
#X connect 6 0 9 0;
#X connect 7 0 6 0;
#X connect 8 0 19 0;
#X connect 9 0 10 0;
#X connect 10 1 11 0;
#X connect 11 0 46 0;
#X connect 11 1 8 0;
#X connect 12 0 16 0;
#X connect 12 0 109 0;
#X connect 13 0 12 0;
#X connect 13 0 15 0;
#X connect 14 0 13 0;
#X connect 15 0 17 0;
#X connect 15 0 110 0;
#X connect 19 0 1 0;
#X connect 19 0 6 1;
#X connect 24 0 25 0;
#X connect 25 0 23 0;
#X connect 26 0 24 0;
#X connect 27 0 24 1;
#X connect 27 1 26 0;
#X connect 30 0 31 0;
#X connect 31 0 45 0;
#X connect 35 0 36 0;
#X connect 36 0 37 0;
#X connect 37 1 69 0;
#X connect 39 0 14 0;
#X connect 40 0 90 0;
#X connect 41 0 42 0;
#X connect 41 1 67 0;
#X connect 43 0 45 0;
#X connect 45 0 38 0;
#X connect 45 1 32 0;
#X connect 45 2 97 0;
#X connect 46 0 45 0;
#X connect 48 0 105 0;
#X connect 49 0 106 0;
#X connect 50 0 45 0;
#X connect 50 0 68 0;
#X connect 51 0 31 1;
#X connect 56 0 21 0;
#X connect 57 0 40 0;
#X connect 58 0 40 1;
#X connect 59 0 73 0;
#X connect 61 0 120 0;
#X connect 62 0 49 0;
#X connect 62 0 105 0;
#X connect 63 0 48 0;
#X connect 63 0 106 0;
#X connect 64 0 49 1;
#X connect 64 0 48 1;
#X connect 66 0 36 1;
#X connect 69 0 65 0;
#X connect 70 0 71 1;
#X connect 71 0 72 0;
#X connect 72 0 60 0;
#X connect 73 0 74 0;
#X connect 75 0 78 2;
#X connect 76 0 78 1;
#X connect 77 0 62 0;
#X connect 77 0 63 0;
#X connect 78 0 80 0;
#X connect 79 0 78 0;
#X connect 80 0 81 0;
#X connect 80 1 85 0;
#X connect 80 2 89 0;
#X connect 81 0 77 0;
#X connect 82 0 49 0;
#X connect 82 0 105 0;
#X connect 83 0 48 0;
#X connect 83 0 106 0;
#X connect 84 0 82 0;
#X connect 84 0 83 0;
#X connect 85 0 84 0;
#X connect 86 0 49 0;
#X connect 86 0 105 0;
#X connect 87 0 48 0;
#X connect 87 0 106 0;
#X connect 88 0 86 0;
#X connect 88 0 87 0;
#X connect 89 0 88 0;
#X connect 90 0 60 0;
#X connect 90 1 71 0;
#X connect 90 2 79 0;
#X connect 93 0 92 0;
#X connect 94 0 91 0;
#X connect 97 0 52 0;
#X connect 97 1 98 0;
#X connect 97 2 99 0;
#X connect 97 3 34 0;
#X connect 97 4 53 0;
#X connect 97 5 41 0;
#X connect 100 0 93 1;
#X connect 100 0 94 1;
#X connect 101 0 100 0;
#X connect 102 0 92 0;
#X connect 103 0 91 0;
#X connect 104 0 102 1;
#X connect 104 0 103 1;
#X connect 107 0 12 1;
#X connect 108 0 15 1;
#X connect 111 0 102 0;
#X connect 112 0 103 0;
#X connect 114 0 93 0;
#X connect 115 0 94 0;
#X connect 116 0 119 0;
#X connect 117 0 125 0;
#X connect 118 0 104 0;
#X connect 119 0 101 0;
#X connect 120 0 121 0;
#X connect 120 1 39 0;
#X connect 120 1 123 0;
#X connect 121 0 14 0;
#X connect 121 0 124 0;
#X connect 123 0 122 0;
#X connect 124 0 122 0;
#X connect 125 0 118 0;
#X coords 0 -1 1 1 80 140 1 100 100;
